#!OML:ASF \\sashay\E\basketball\basketball\Project 1\Capture day 1\Session 1\Subject.ASF
:FULLY-SPECIFIED
:DEGREES
276
root -31.6135 13.6271 2.87445 -174.863 -41.0035 181.923
lowerback 35.5445 6.14136 -3.23311
upperback 11.3996 3.98567 -1.39487
thorax -5.23596 0.886628 -1.08458
lowerneck -9.09145 7.53296 -12.3292
upperneck -21.6564 10.7162 6.91003
head -6.20185 5.20037 3.98359
rclavicle -1.94809e-014 6.77856e-014
rhumerus -14.128 -24.8094 -71.7641
rradius 46.7224
rwrist -27.5636
rhand -31.8282 36.4743
rfingers 7.12502
rthumb -5.08285 6.55526
lclavicle -1.94809e-014 6.77856e-014
lhumerus -12.7272 21.3222 66.7637
lradius 46.7456
lwrist 31.3981
lhand -25.782 14.7884
lfingers 7.12502
lthumb 0.756256 44.7668
rfemur -43.3974 -20.6164 1.81727
rtibia 63.7726
rfoot -14.1182 -4.19268
rtoes -37.3458
lfemur -54.4058 26.7087 -21.0003
ltibia 81.5046
lfoot -18.7068 -8.95683
ltoes -15.0762
277
root -31.6853 13.6301 2.8634 -175.004 -40.8313 182.107
lowerback 35.3036 6.21298 -2.75042
upperback 11.4877 4.24371 -1.60006
thorax -5.14667 1.0293 -1.62323
lowerneck -8.20364 7.87972 -10.6921
upperneck -22.4286 10.7851 5.17109
head -6.42168 5.1865 3.11654
rclavicle 6.10269e-014 7.95139e-016
rhumerus -14.4301 -25.5736 -72.0512
rradius 46.9269
rwrist -27.311
rhand -31.6661 37.0661
rfingers 7.12502
rthumb -4.92632 7.1434
lclavicle 6.10269e-014 7.95139e-016
lhumerus -12.433 20.2288 66.6268
lradius 45.92
lwrist 31.4459
lhand -25.9408 14.6672
lfingers 7.12502
lthumb 0.60293 44.6461
rfemur -42.9614 -20.6256 1.79837
rtibia 63.3593
rfoot -14.0381 -4.51269
rtoes -39.1753
lfemur -54.1325 26.8845 -20.9622
ltibia 81.6012
lfoot -19.1568 -8.68752
ltoes -16.7
278
root -31.7562 13.6365 2.85153 -175.052 -40.6595 182.232
lowerback 35.0163 6.2454 -2.66575
upperback 11.4752 4.35816 -1.51818
thorax -5.0603 1.09264 -1.61055
lowerneck -6.81987 8.41517 -9.92667
upperneck -23.468 11.1622 3.62933
head -6.89731 5.38709 2.40706
rclavicle -1.33186e-014 -1.98785e-016
rhumerus -14.4213 -25.5978 -72.1409
rradius 46.9907
rwrist -27.1251
rhand -31.8662 36.8887
rfingers 7.12502
rthumb -5.11954 6.97056
lclavicle -1.33186e-014 -1.98785e-016
lhumerus -12.5654 19.7718 66.6894
lradius 45.1938
lwrist 31.3583
lhand -25.7012 15.0382
lfingers 7.12502
lthumb 0.834345 45.0163
rfemur -42.5075 -19.5506 1.57553
rtibia 63.0363
rfoot -13.8754 -5.70871
rtoes -40.149
lfemur -53.8473 27.0425 -21.0121
ltibia 81.6336
lfoot -19.6423 -8.33393
ltoes -18.2548
279
root -31.8263 13.6443 2.83907 -175.012 -40.4968 182.224
lowerback 34.6649 6.23639 -2.98322
upperback 11.4858 4.31284 -1.18579
thorax -4.96978 1.0628 -1.0694
lowerneck -8.17829 7.75689 -11.524
upperneck -22.2745 10.7366 5.78719
head -6.45251 5.19383 3.44957
rclavicle -2.8625e-014 7.77248e-014
rhumerus -14.0858 -24.8698 -72.0849
rradius 46.9486
rwrist -26.7498
rhand -32.0961 36.8581
rfingers 7.12502
rthumb -5.34153 6.94538
lclavicle -2.8625e-014 7.77248e-014
lhumerus -12.9836 19.9378 67.0241
lradius 44.4315
lwrist 31.1844
lhand -25.4906 15.5685
lfingers 7.12502
lthumb 1.03773 45.5457
rfemur -42.2387 -19.354 1.44889
rtibia 62.7265
rfoot -13.6505 -6.39395
rtoes -41.4539
lfemur -53.4936 27.1543 -21.153
ltibia 81.6189
lfoot -20.1383 -8.13496
ltoes -18.2362
280
root -31.8882 13.6423 2.82365 -174.99 -40.1947 182.176
lowerback 34.4071 6.34857 -3.27295
upperback 11.4867 4.40457 -0.97077
thorax -4.91198 1.09899 -0.716584
lowerneck -8.63867 7.56184 -11.7146
upperneck -21.7858 10.5699 6.23012
head -6.23359 5.10977 3.6535
rclavicle 2.06736e-014 -4.39314e-014
rhumerus -13.8553 -24.3683 -72.1136
rradius 46.8511
rwrist -26.2162
rhand -32.187 37.1182
rfingers 7.12502
rthumb -5.4293 7.20774
lclavicle 2.06736e-014 -4.39314e-014
lhumerus -13.1565 19.5102 67.4045
lradius 43.4939
lwrist 30.8766
lhand -25.6905 15.8538
lfingers 7.12502
lthumb 0.844707 45.8318
rfemur -41.7777 -18.7939 0.983699
rtibia 62.3943
rfoot -14.2035 -5.4529
rtoes -37.358
lfemur -53.1341 27.4339 -21.2826
ltibia 81.6032
lfoot -20.5056 -8.06048
ltoes -17.9438
281
root -31.955 13.6412 2.81214 -174.999 -40.3583 182.152
lowerback 34.2429 6.27433 -3.30176
upperback 11.4505 4.36749 -0.671316
thorax -4.91802 1.08404 -0.371729
lowerneck -8.91588 7.36073 -11.9528
upperneck -21.3045 10.3568 6.44568
head -6.03549 5.02517 3.78339
rclavicle 1.44616e-013 -7.71285e-014
rhumerus -13.8042 -23.8023 -71.9427
rradius 46.7959
rwrist -25.6465
rhand -32.3871 37.2749
rfingers 7.12502
rthumb -5.62252 7.36946
lclavicle 1.44616e-013 -7.71285e-014
lhumerus -13.3662 18.651 68.0062
lradius 42.4025
lwrist 29.9908
lhand -26.2167 15.8153
lfingers 7.12502
lthumb 0.336408 45.7948
rfemur -41.1599 -18.8559 0.598857
rtibia 62.0604
rfoot -14.4485 -5.00678
rtoes -35.8456
lfemur -52.7906 27.2011 -21.3687
ltibia 81.5086
lfoot -20.5632 -8.11974
ltoes -17.0844
282
root -32.0205 13.6556 2.80042 -175.031 -40.4655 182.12
lowerback 34.1054 6.26943 -3.54767
upperback 11.3753 4.35908 -0.259532
thorax -4.99809 1.07746 0.190333
lowerneck -8.90536 7.21515 -12.3112
upperneck -21.0279 10.1923 6.57692
head -5.9585 4.97285 3.89003
rclavicle -3.02153e-014 -2.55438e-014
rhumerus -13.7752 -22.9698 -71.6919
rradius 46.74
rwrist -24.7208
rhand -32.7806 37.223
rfingers 7.12502
rthumb -6.00236 7.32798
lclavicle -3.02153e-014 -2.55438e-014
lhumerus -13.7642 17.8077 68.7572
lradius 41.2162
lwrist 28.5856
lhand -26.5764 15.6742
lfingers 7.12502
lthumb -0.0109423 45.654
rfemur -40.8235 -19.5225 0.497131
rtibia 61.9493
rfoot -14.4185 -5.09842
rtoes -38.2036
lfemur -52.2672 27.153 -21.4594
ltibia 81.2324
lfoot -20.4957 -8.40715
ltoes -15.0943
